<?xml version="1.0" encoding="utf-8"?>
<!-- Generator: Adobe Illustrator 18.1.0, SVG Export Plug-In . SVG Version: 6.00 Build 0)  -->
<!DOCTYPE svg PUBLIC "-//W3C//DTD SVG 1.1//EN" "http://www.w3.org/Graphics/SVG/1.1/DTD/svg11.dtd">
<svg version="1.1" id="Your_Icon" xmlns="http://www.w3.org/2000/svg" xmlns:xlink="http://www.w3.org/1999/xlink" x="0px" y="0px"
	 viewBox="0 0 128 128" enable-background="new 0 0 128 128" xml:space="preserve">
<path opacity="0.05" fill="#222222" d="M68.979,123.045c0,2.737-2.218,4.955-4.955,4.955h-0.047c-2.737,0-4.955-2.218-4.955-4.955
	v-22.578c0-2.738,2.218-4.955,4.955-4.955h0.047c2.737,0,4.955,2.217,4.955,4.955V123.045z"/>
<path opacity="0.05" fill="#222222" d="M68.979,27.534c0,2.737-2.218,4.955-4.955,4.955h-0.047c-2.737,0-4.955-2.218-4.955-4.955
	V4.955C59.021,2.218,61.24,0,63.976,0h0.047c2.737,0,4.955,2.218,4.955,4.955v22.579H68.979z"/>
<path opacity="0.6" fill="#222222" d="M4.955,68.979C2.218,68.979,0,66.76,0,64.024v-0.047c0-2.737,2.218-4.955,4.955-4.955h22.578
	c2.737,0,4.955,2.218,4.955,4.955v0.047c0,2.737-2.218,4.955-4.955,4.955H4.955z"/>
<path opacity="0.6" fill="#222222" d="M100.466,68.979c-2.737,0-4.954-2.218-4.954-4.955v-0.047c0-2.737,2.217-4.955,4.954-4.955
	h22.579c2.737,0,4.955,2.218,4.955,4.955v0.047c0,2.737-2.218,4.955-4.955,4.955H100.466z"/>
<path fill="#222222" d="M97.836,112.645c1.367,2.371,0.557,5.402-1.814,6.769l-0.041,0.024c-2.371,1.368-5.402,0.557-6.769-1.814
	L77.924,98.072c-1.368-2.371-0.558-5.4,1.814-6.769l0.041-0.024c2.369-1.368,5.4-0.557,6.769,1.814L97.836,112.645z"/>
<path fill="#222222" d="M50.079,29.93c1.368,2.371,0.556,5.4-1.814,6.769l-0.041,0.024c-2.371,1.368-5.4,0.557-6.769-1.814
	L30.167,15.356c-1.368-2.371-0.557-5.4,1.814-6.769l0.041-0.023c2.371-1.368,5.4-0.557,6.769,1.814L50.079,29.93z"/>
<path opacity="0.4" fill="#222222" d="M15.355,97.834c-2.371,1.368-5.4,0.557-6.769-1.814L8.563,95.98
	c-1.368-2.371-0.557-5.402,1.814-6.769L29.93,77.923c2.371-1.368,5.4-0.558,6.769,1.814l0.024,0.041
	c1.368,2.369,0.557,5.399-1.814,6.767L15.355,97.834z"/>
<path opacity="0.4" fill="#222222" d="M98.07,50.079c-2.371,1.368-5.399,0.557-6.767-1.814l-0.024-0.041
	c-1.368-2.371-0.558-5.4,1.814-6.769l19.552-11.29c2.371-1.368,5.402-0.557,6.769,1.814l0.026,0.041
	c1.367,2.371,0.556,5.4-1.815,6.769L98.07,50.079z"/>
<path opacity="0.8" fill="#222222" d="M117.624,89.211c2.371,1.367,3.182,4.399,1.814,6.769l-0.024,0.041
	c-1.367,2.369-4.399,3.181-6.769,1.814L93.093,86.546c-2.371-1.368-3.182-4.399-1.814-6.769l0.023-0.042
	c1.368-2.371,4.401-3.181,6.77-1.812L117.624,89.211z"/>
<path opacity="0.8" fill="#222222" d="M34.908,41.455c2.369,1.368,3.181,4.399,1.814,6.769l-0.024,0.041
	c-1.368,2.371-4.398,3.182-6.769,1.814l-19.553-11.29c-2.371-1.368-3.182-4.398-1.814-6.769l0.024-0.041
	c1.368-2.371,4.398-3.182,6.769-1.814L34.908,41.455z"/>
<path opacity="0.2" fill="#222222" d="M38.788,117.624c-1.367,2.371-4.398,3.182-6.769,1.815l-0.04-0.026
	c-2.371-1.367-3.182-4.399-1.814-6.767l11.288-19.553c1.368-2.371,4.399-3.182,6.769-1.814l0.041,0.024
	c2.371,1.368,3.182,4.399,1.814,6.767L38.788,117.624z"/>
<path opacity="0.2" fill="#222222" d="M86.545,34.908c-1.368,2.371-4.399,3.181-6.769,1.814l-0.04-0.024
	c-2.372-1.368-3.183-4.398-1.814-6.769L89.21,10.376c1.368-2.371,4.401-3.182,6.769-1.814l0.042,0.023
	c2.369,1.368,3.181,4.399,1.812,6.769L86.545,34.908z"/>
</svg>
