<?xml version="1.0" encoding="utf-8"?>
<!-- Generator: Adobe Illustrator 16.0.0, SVG Export Plug-In . SVG Version: 6.00 Build 0)  -->
<!DOCTYPE svg PUBLIC "-//W3C//DTD SVG 1.1//EN" "http://www.w3.org/Graphics/SVG/1.1/DTD/svg11.dtd">
<svg version="1.1" id="Layer_1" xmlns="http://www.w3.org/2000/svg" xmlns:xlink="http://www.w3.org/1999/xlink" x="0px" y="0px"
	 width="360px" height="504px" viewBox="0 0 360 504" enable-background="new 0 0 360 504" xml:space="preserve">
<rect x="-13.5" y="260.5" fill="#EA911B" width="7.25" height="21"/>
<rect x="-16" y="237.25" fill="#B5352F" width="9.75" height="16.75"/>
<path id="leaf_1_" opacity="0.5" fill="#1DE012" d="M118.534,165.669c6.367-4.611,30.989-5.16,43.365,3.294
	c13.435,9.176,20.051,25.576,18.334,40.287C172.109,198.275,133.684,171.927,118.534,165.669z"/>
<path id="RED_1_" opacity="0.8" fill="#FF5757" d="M259.034,299.594c4.692-8.958,9.778-23.656,9.278-42.531
	c-0.427-16.103-3.373-35.865-15.338-45.333c-19.418-15.365-50.85-2.855-59.473,3.104c-11.752-6.646-25.172-10.956-40.416-9.485
	c-14.523,1.401-29.086,16.464-33.385,34.358c5.362-5.082,11.799-7.957,19.174-8.457c20.421-1.384,32.222,18.639,42.128,28.589
	C189.75,268.625,214.562,308.5,259.034,299.594z"/>
<path fill="#FFAD4A" d="M162.003,283.839c-9.906-9.95-21.707-29.974-42.128-28.589c-7.364,0.499-13.792,3.367-19.149,8.435
	c-0.198,0.767-0.397,1.532-0.559,2.315c-3.566,17.268-0.491,35.105,1,39.668c1.703,5.207,5.167,16.498,16,29.333
	c3.375,3.999,11.333,12.165,20.667,16.333c10.173,4.543,22.763,7.167,35.167,7.167c35.388,0,56.198-15.123,67.021-34.904
	C195.558,332.491,170.749,292.624,162.003,283.839z"/>
<path opacity="0.8" fill="#282828" d="M243.833,216.5c-10.776-9.73-39.833-12.167-59.646,1.125
	c-0.127-4.561,1.269-17.009,5.5-25.938c4.118-8.689,10.828-14.514,14.979-17.021c-0.979-2.167-1.604-3.354-2.334-5.333
	c-6.627,4.036-19.958,20.729-20.736,31c-2.523-5.905-3.953-17.207-17.597-23.708c-12.5-5.957-28.167-6.123-48,2
	c15.75,6.125,41.167,21.877,54.667,35.042c-14.833-7.333-28.833-7.499-45.333,0.601c-14.515,7.125-27.167,25.899-27.167,53.566
	c0,19.5,6.119,38.859,17.333,54.167c10.5,14.333,27.815,29.044,66.003,29C273.667,350.895,278.167,247.5,243.833,216.5z
	 M130.667,179.418c4.833-3.5,23.522-3.917,32.917,2.5c10.197,6.965,15.22,19.414,13.917,30.58
	C171.333,204.168,142.167,184.168,130.667,179.418z M180,344.501c-12.404,0-24.993-2.624-35.167-7.167
	c-9.333-4.168-17.291-12.334-20.667-16.333c-10.833-12.835-14.297-24.126-16-29.333c-1.491-4.562-4.566-22.4-1-39.668
	c3.452-16.714,15.569-29.539,23.5-33.499c16.011-7.994,38.5-1.167,50.835,6.333c14.998-10.566,43.894-14.474,58.331-4
	C265.333,239.333,273.333,344.502,180,344.501z"/>
</svg>
