<?xml version="1.0" encoding="utf-8"?>
<!-- Generator: Adobe Illustrator 18.0.0, SVG Export Plug-In . SVG Version: 6.00 Build 0)  -->
<!DOCTYPE svg PUBLIC "-//W3C//DTD SVG 1.1 Tiny//EN" "http://www.w3.org/Graphics/SVG/1.1/DTD/svg11-tiny.dtd">
<svg version="1.1" baseProfile="tiny" id="Layer_1" xmlns="http://www.w3.org/2000/svg" xmlns:xlink="http://www.w3.org/1999/xlink"
	 x="0px" y="0px" viewBox="0 0 125.414 57.047" xml:space="preserve">
<g>
	<path d="M6.78,28.447c0.635-1.785,1.265-3.54,1.802-5.294h2.757l-0.974,2.443h0.063c1.521-2.004,3.954-2.819,6.179-2.819
		c3.603,0,5.226,2.632,4.605,6.078c-1.057,5.858-4.647,10.65-9.974,10.65c-2.788,0-4.279-0.939-4.703-2.756H6.472l-3.527,8.959H0
		L6.78,28.447z M11.26,37.125c3.352,0,6.055-4.042,6.773-8.02c0.487-2.694-0.822-3.947-2.859-3.947
		c-3.447,0-6.423,3.822-7.135,7.769C7.648,35.088,8.566,37.125,11.26,37.125z"/>
	<path d="M26.606,23.592c1.495-0.47,3.437-0.815,4.596-0.815c3.227,0,6.102,1.253,5.412,5.075c-0.129,0.72-0.442,1.754-0.734,2.505
		c-1.132,2.976-2.327,5.952-3.243,8.771h-2.726c0.298-0.783,0.656-1.722,1.014-2.662h-0.062c-1.348,1.911-3.619,3.038-5.749,3.038
		c-2.694,0-4.852-1.409-4.309-4.417c0.82-4.541,5.155-5.827,10.512-5.827c0.627,0,1.399,0.062,2.114,0.094
		c0.119-0.313,0.275-0.658,0.343-1.033c0.413-2.287-0.933-3.164-3.094-3.164c-1.723,0-3.673,0.564-5.13,1.347L26.606,23.592z
		 M32.424,31.455h-2.255c-2.224,0-5.683,0.595-6.209,3.508c-0.254,1.41,0.832,2.162,2.241,2.162
		C29.177,37.125,31.593,34.148,32.424,31.455z"/>
	<path d="M33.647,43.422c0.197,0.125,0.701,0.282,1.233,0.282c1.792-0.031,3.228-1.223,4.896-3.698l0.473-16.854h3.07l-0.452,12.75
		h0.062l9.255-12.75h3.164L41.021,42.138c-1.851,2.444-3.187,3.946-6.132,3.946c-0.72,0-1.46-0.063-2.185-0.219L33.647,43.422z"/>
	<path d="M59.715,15.634h2.945l-9.221,23.495h-2.945L59.715,15.634z"/>
	<path d="M69.887,22.777c4.292,0,6.611,2.601,5.82,6.986c-0.978,5.42-4.954,9.742-10.686,9.742c-4.387,0-6.839-2.38-5.985-7.111
		C59.997,27.068,64.029,22.777,69.887,22.777z M65.418,37.125c3.321,0,6.505-3.759,7.155-7.362c0.43-2.381-0.578-4.605-3.241-4.605
		c-3.916,0-6.605,4.135-7.204,7.455C61.671,35.151,62.63,37.125,65.418,37.125z"/>
	<path d="M89.896,25.941c-0.932-0.563-1.895-0.783-2.71-0.783c-3.79,0-6.745,3.352-7.446,7.236c-0.536,2.976,0.651,4.731,3.47,4.731
		c1.003,0,2.349-0.344,3.357-0.721l-1.024,2.726c-1.022,0.282-2.104,0.376-3.138,0.376c-4.229,0-6.673-2.254-5.875-6.672
		c0.978-5.419,4.978-10.056,10.523-10.056c1.692,0,2.905,0.22,4.022,0.626L89.896,25.941z"/>
	<path d="M93.81,23.152h2.944l-6.266,15.977h-2.945L93.81,23.152z M98.37,19.581h-3.321l1.289-3.32h3.321L98.37,19.581z"/>
	<path d="M98.599,23.152h3.571l1.45-3.697l3.362-1.096l-1.867,4.792h3.724l-0.899,2.381h-3.756l-2.71,6.86
		c-0.287,0.721-0.911,2.443-1.013,3.008c-0.204,1.128,0.315,1.723,1.819,1.723c0.627,0,1.532-0.157,2.141-0.407l-0.879,2.444
		c-0.703,0.25-2.099,0.343-2.945,0.343c-2.788,0-3.488-1.847-3.183-3.539c0.187-1.033,0.896-2.882,1.243-3.759l2.582-6.673h-3.509
		L98.599,23.152z"/>
	<path d="M102.552,43.422c0.197,0.125,0.701,0.282,1.234,0.282c1.791-0.031,3.228-1.223,4.896-3.698l0.473-16.854h3.069
		l-0.453,12.75h0.063l9.256-12.75h3.164l-14.328,18.985c-1.85,2.444-3.187,3.946-6.132,3.946c-0.721,0-1.461-0.063-2.185-0.219
		L102.552,43.422z"/>
</g>
<path fill="#E98A24" d="M51.092,16.481c0,0-18.976-13.667-30.201-12.888C9.668,4.37,7.386,14.571,7.386,14.571l-2.27,1.81
	C5.116,16.381,7.514,0,23.108,0c12.823,0,29.865,16.556,29.865,16.556L51.092,16.481z"/>
<path fill="#C6352D" d="M76.433,42.838c0,0,15.718,12.033,29.868,10.84c14.15-1.194,16.838-12.359,16.838-12.359l2.275-3.079
	c0,0-2.307,19.384-21.524,18.794c-16.176-0.497-29.382-14.198-29.382-14.198L76.433,42.838z"/>
</svg>
